<svg width="51" height="50" viewBox="0 0 51 50" fill="none" xmlns="http://www.w3.org/2000/svg">
<path opacity="0.5" d="M27.268 45.4188C33.9107 44.1146 42.5 39.4292 42.5 27.3146C42.5 16.2917 34.2699 8.95 28.3517 5.57708C27.0364 4.82708 25.5 5.8125 25.5 7.30208V11.1104C25.5 14.1146 24.2122 19.5979 20.6337 21.8792C18.8062 23.0437 16.83 21.3 16.609 19.175L16.4263 17.4292C16.2138 15.4 14.1058 14.1687 12.4525 15.4062C9.47963 17.625 6.375 21.5208 6.375 27.3125C6.375 42.1271 17.6141 45.8333 23.2326 45.8333C23.5613 45.8333 23.9041 45.8229 24.2611 45.8021C25.2089 45.6854 24.2611 46.0083 27.268 45.4167" fill="url(#paint0_linear_71_7)"/>
<path d="M19.125 37.8583C19.125 43.3166 23.6109 45.0041 26.3861 45.2374C27.3339 45.1208 26.3861 45.4437 29.393 44.852C31.6009 44.0874 34 42.1249 34 37.8583C34 35.1562 32.2596 33.4874 30.8975 32.7062C30.481 32.4666 29.9965 32.7687 29.9604 33.2395C29.8414 34.7353 28.3751 35.927 27.3785 34.7895C26.4966 33.7853 26.1247 32.3166 26.1247 31.377V30.1478C26.1247 29.4103 25.3661 28.9187 24.7159 29.2978C22.3019 30.6999 19.125 33.5874 19.125 37.8583Z" fill="black"/>
<defs>
<linearGradient id="paint0_linear_71_7" x1="24.4375" y1="45.8333" x2="24.4375" y2="5.31987" gradientUnits="userSpaceOnUse">
<stop stop-color="#4B4B4B"/>
<stop offset="0.5" stop-color="#FAFAFA"/>
</linearGradient>
</defs>
</svg>
